<?xml version="1.0"?>
<svg xmlns="http://www.w3.org/2000/svg" xmlns:xlink="http://www.w3.org/1999/xlink" xmlns:svgjs="http://svgjs.com/svgjs" version="1.1" width="512" height="512" x="0" y="0" viewBox="0 0 510.992 510.992" style="enable-background:new 0 0 512 512" xml:space="preserve" class=""><g><path xmlns="http://www.w3.org/2000/svg" d="m151.121 129.051c-8.837 0-16-7.163-16-16v-97.051c0-8.837 7.163-16 16-16s16 7.163 16 16v97.051c0 8.837-7.163 16-16 16z" fill="#5d4a97" data-original="#000000" style="" class=""/><path xmlns="http://www.w3.org/2000/svg" d="m359.872 129.051c-8.837 0-16-7.163-16-16v-97.051c0-8.837 7.163-16 16-16s16 7.163 16 16v97.051c0 8.837-7.163 16-16 16z" fill="#5d4a97" data-original="#000000" style="" class=""/><path xmlns="http://www.w3.org/2000/svg" d="m24.263 221.975v220.767c0 37.634 30.617 68.251 68.251 68.251h325.965c37.634 0 68.251-30.617 68.251-68.251v-220.767z" fill="#5d4a97" data-original="#000000" style="" class=""/><path xmlns="http://www.w3.org/2000/svg" d="m486.729 189.975v-73.198c0-37.634-30.617-68.251-68.251-68.251h-10.606v64.525c0 26.468-21.532 48-48 48s-48-21.532-48-48v-64.526h-112.751v64.525c0 26.468-21.532 48-48 48s-48-21.532-48-48v-64.525h-10.607c-37.634 0-68.251 30.617-68.251 68.251v73.198h462.466z" fill="#5d4a97" data-original="#000000" style="" class=""/></g></svg>
