<svg xmlns="http://www.w3.org/2000/svg" width="20.6" height="22.5" viewBox="0 0 20.6 22.5">
    <defs>
        <style>
            .cls-2{fill:#2a2434}
        </style>
    </defs>
    <g id="Icon_feather-calendar" opacity="0.85" transform="translate(-3.5 -2)">
        <g id="Path_5">
            <path id="Path_2605" d="M20.9 24.5H6.6a3.116 3.116 0 0 1-3.1-3.1V7.1A3.116 3.116 0 0 1 6.6 4H21a3.116 3.116 0 0 1 3.1 3.1v14.4a3.185 3.185 0 0 1-3.2 3zM6.6 6.1a1.028 1.028 0 0 0-1.1 1v14.4a1.11 1.11 0 0 0 1.1 1.1H21a1.11 1.11 0 0 0 1.1-1.1V7.1A1.11 1.11 0 0 0 21 6H6.6z" class="cls-2"/>
        </g>
        <g id="Path_6">
            <path id="Path_2606" d="M17.8 8.1a.945.945 0 0 1-1-1V3a1 1 0 0 1 2 0v4.1a.945.945 0 0 1-1 1z" class="cls-2"/>
        </g>
        <g id="Path_7">
            <path id="Path_2607" d="M9.6 8.1a.945.945 0 0 1-1-1V3a.945.945 0 0 1 1-1 .945.945 0 0 1 1 1v4.1a.945.945 0 0 1-1 1z" class="cls-2"/>
        </g>
        <g id="Path_8">
            <path id="Path_2608" d="M23 12.2H4.5a.945.945 0 0 1-1-1 .945.945 0 0 1 1-1H23a.945.945 0 0 1 1 1 1 1 0 0 1-1 1z" class="cls-2"/>
        </g>
    </g>
</svg>
