<svg xmlns="http://www.w3.org/2000/svg" id="Group_4253" width="54.25" height="63.824" viewBox="0 0 54.25 63.824">
    <defs>
        <style>
            .cls-1{fill:#352d43}
        </style>
    </defs>
    <path id="Path_2349" d="M42.75 15.276a14.452 14.452 0 0 0-.133-2.393 1.406 1.406 0 0 0-.8-.931 1.845 1.845 0 0 0-1.2 0 4.074 4.074 0 0 1-2.26.532c-2.659 0-5.984-1.6-8.51-4.255a8.6 8.6 0 0 1-1.064-1.2 1.641 1.641 0 0 0-1.058-.529 1.209 1.209 0 0 0-1.064.532c-.4.4-.665.8-1.064 1.2-2.659 2.659-5.851 4.255-8.51 4.255a4.074 4.074 0 0 1-2.26-.532 1 1 0 0 0-1.2 0 1.406 1.406 0 0 0-.8.931 14.452 14.452 0 0 0-.133 2.393 15.025 15.025 0 1 0 30.05 0zM27.725 27.642a12.428 12.428 0 0 1-12.366-12.366v-.4a7.025 7.025 0 0 0 1.729.133c3.324 0 7.313-1.862 10.371-5.053.133.133.133 0 .266-.133l.266.266c3.191 3.191 7.047 5.053 10.371 5.053a7.024 7.024 0 0 0 1.729-.133v.4a12.315 12.315 0 0 1-12.366 12.233z" class="cls-1" transform="translate(-0.6 2.143)"/>
    <path id="Path_2350" d="M47.08 41.22a8.292 8.292 0 0 0 5.053-6.648 8.307 8.307 0 0 0 5.718-7.845 7.931 7.931 0 0 0-6.651-8.112C50.537 8.244 41.629 0 30.725 0S10.913 8.244 10.248 18.615A7.931 7.931 0 0 0 3.6 26.726a8.26 8.26 0 0 0 5.718 7.845 8.051 8.051 0 0 0 5.052 6.649 26.834 26.834 0 0 0-10.5 21.275 1.256 1.256 0 0 0 1.33 1.33h51.188a1.256 1.256 0 0 0 1.33-1.33A27.349 27.349 0 0 0 47.08 41.22zm-35.1-7.446v-.266a1.3 1.3 0 0 0-1.064-1.33 5.548 5.548 0 0 1-4.521-5.452c0-5.186 4.787-5.585 5.319-5.718a1.312 1.312 0 0 0 1.2-1.33c0-9.308 7.978-17.02 17.818-17.02S48.55 10.37 48.55 19.811a1.312 1.312 0 0 0 1.2 1.33 5.646 5.646 0 0 1 .8 11.169 1.3 1.3 0 0 0-1.064 1.33v.133a5.476 5.476 0 0 1-5.452 5.452 26.913 26.913 0 0 0-26.859 0 5.52 5.52 0 0 1-5.198-5.451zm25.264 5.319c-.532 3.058-3.324 7.978-6.515 7.978s-5.984-4.92-6.515-7.978a26.578 26.578 0 0 1 6.515-.931 26.579 26.579 0 0 1 6.512.93zM6.525 61.165a24.333 24.333 0 0 1 15.158-21.142c.8 4.122 4.388 9.707 9.042 9.707s8.111-5.718 9.042-9.707a24.333 24.333 0 0 1 15.158 21.142z" class="cls-1" transform="translate(-3.6 0)"/>
    <path id="Path_2351" d="M29.626 13.7h-1.2a1.256 1.256 0 0 0-1.33 1.33 1.256 1.256 0 0 0 1.33 1.33h1.2a1.256 1.256 0 0 0 1.33-1.33 1.332 1.332 0 0 0-1.33-1.33z" class="cls-1" transform="translate(4.147 4.516)"/>
    <path id="Path_2352" d="M20.526 13.7h-1.2A1.256 1.256 0 0 0 18 15.03a1.256 1.256 0 0 0 1.33 1.33h1.2a1.256 1.256 0 0 0 1.33-1.33 1.43 1.43 0 0 0-1.334-1.33z" class="cls-1" transform="translate(1.147 4.516)"/>
</svg>
