<svg xmlns="http://www.w3.org/2000/svg" width="375" height="339">
    <defs>
        <linearGradient id="a" x1=".5" x2=".5" y2="1" gradientUnits="objectBoundingBox">
            <stop offset="0" stop-color="#8e98ff"/>
            <stop offset="1" stop-color="#4a4eb4"/>
        </linearGradient>
        <clipPath id="b">
        </clipPath>
    </defs>
    <g style="clip-path:url(#b)">
        <g style="opacity:.2" data-name="Mask Group 86" transform="translate(-41 -274)">
            <path d="M165.307 224.187c4.529 1.958 10.281-.89 7.523-6.548-2.955-6.058-12.681-5.625-18.165-5.214.551 0 2.618 5.589 3.27 6.416a18.64 18.64 0 0 0 7.372 5.346zm-56.682-108.43c-1.164-.894-.096-.084 0 0zm59.466 80.18a5.245 5.245 0 0 0 .186-7.852c-2.66-2.678-7.242-2.335-10.653-1.882-1.543.205-9.78 1.3-7.749 2.552a6.683 6.683 0 0 1-.823-.341q-.325-.981-.674-1.951c.047-.031.087-.064.138-.094-.055.027-.094.056-.141.084a76.012 76.012 0 0 0-9.508-18.238 17.928 17.928 0 0 0 4.341.919c4.344.32 13.246-3.51 8.118-9-4.917-5.266-11.813 1.021-17.024 2.112a245.9 245.9 0 0 0-17.675-19.646 1.4 1.4 0 0 0 .821-.761c2.425 1.075 4.976 2.66 7.186 3.01 3.189.5 9.679.57 11.915-2.378 2.751-3.626-.54-6.28-4.039-6.765-5.074-.7-11.521 2.1-16.268 4.008a1.6 1.6 0 0 0-1.491.586l-.312.12c-6.305-6.243-12.828-12.257-19.305-18.135h.2a16.748 16.748 0 0 0 5.317 2.1c4.371.825 9.45.565 12.789-2.743 3.326-3.292 4.278-8.8.485-12.1-7.592-6.611-17.4 9.884-21.012 10.74-6.579-5.906-13.5-11.385-20.51-16.74a12 12 0 0 0 2.378.356c6.617.285 21.65-8.6 13.153-16.117-7.405-6.552-14.857 7.2-20.288 12.153C61.038 94.945 54.4 90 47.928 84.831a18.02 18.02 0 0 0 10.244-.6c3.681-1.328 9.57-4.47 6.941-9.4-2.675-5.01-9.8-2.293-13.491-.464-2.013 1-5.984 4.216-9.543 5.67-10.355-8.8-19.44-18.611-26.544-30.359A108.807 108.807 0 0 1 5.02 26.267C3.366 21.05.186 12.308.369 5.4-1.5 19.311 4.051 35.617 9.74 47.67c5.232 11.083 12.692 20.662 21.291 29.187-1.719 6.243-18.425 15.992-7.862 21.154 5.609 2.728 10.93-2.565 11.844-7.925.628-3.683-.859-8.191-2.368-11.655q4.05 3.891 8.371 7.5c3.97 3.33 8.026 6.553 12.118 9.73C47 102.064 41.807 119.7 50.6 122.083c12.987 3.5 5.6-19.8 4.478-24.182a.7.7 0 0 0-.584.256c.051-.409.111-.847.19-1.289 7.828 6.048 15.76 11.964 23.457 18.173-.637.524-1.592 2.45-2.367 3.489A37.814 37.814 0 0 0 71.2 126c-1.846 4.258-3.488 10.98 2.108 13.134 6.086 2.348 8.519-5.286 8.327-9.754-.133-3.09-1.129-5.979-1.725-8.983-.186-.937.118-5.22-1.073-3.322a9.019 9.019 0 0 0-.04-1.512q2.073 1.681 4.119 3.4a1.6 1.6 0 0 0-.088.519 1.545 1.545 0 0 0 2.286 1.338q2.7 2.313 5.348 4.7a735.374 735.374 0 0 1 11.272 10.432c-.739.705-.383 1.61-1.069 2.353s-2.088 1.206-2.9 1.9a20.577 20.577 0 0 0-4.854 6.676c-1.911 4.01-4.216 12.332 2.061 13.866 6.47 1.585 9.291-6.457 9.443-11.4a125.7 125.7 0 0 0-1.845-12.605c6.964 6.624 13.833 13.515 20.1 20.564-1.781.11-6.644 4.028-7.615 5.077-2.365 2.562-6.047 8.141-1.527 10.755 4.019 2.317 8.617-1.585 10.093-5.221a49.876 49.876 0 0 0 .869-8.533c2.6 2.992 5.082 6.009 7.407 9.043q2.325 3.027 4.383 6.223a2.922 2.922 0 0 0-.813.889c-6.424 1.44-14.158 11.986-6.36 15.106 3.713 1.483 7.463-2.177 9.09-5.1a37.722 37.722 0 0 0 1.129-5.856 121.475 121.475 0 0 1 9.7 22.407 1.417 1.417 0 0 0-1.036 1.371c-3.053 1.958-5.46 3.582-7.476 7.148-1.253 2.214-3.453 7.239.619 8.218 5.3 1.274 8.16-6.868 8.382-10.817.026-.459-.046-1.784-.127-3a1.755 1.755 0 0 0 .544-.038 171.132 171.132 0 0 1 3.691 14.637c-2.8 1.066-2.51 16.051-.5 18.081 4.489 4.546 7.118-2.5 6.7-6.128-.492-4.279-2.643-8.083-5.141-11.428-.267-.353-.2-.34-.233.175a1.036 1.036 0 0 0-.276-.562 65.177 65.177 0 0 0-.1-6.586 152.715 152.715 0 0 0-2.855-17.037q-.461-2.043-1.022-4.048a33.2 33.2 0 0 0 6.805 3.88c3.19 1.255 8.099 2.519 11.089-.025zM0 5.4A16.145 16.145 0 0 1 .9 0 42.093 42.093 0 0 0 0 5.4z" transform="scale(-1) rotate(2.98 12062.775 -8521.445)" style="fill:none;stroke:#161a1a;stroke-width:2px;fill-rule:evenodd" data-name="Scene/Plants"/>
        </g>
    </g>
</svg>
